<?xml version="1.0" encoding="UTF-8" standalone="no"?>
<svg
   xmlns:dc="http://purl.org/dc/elements/1.1/"
   xmlns:cc="http://creativecommons.org/ns#"
   xmlns:rdf="http://www.w3.org/1999/02/22-rdf-syntax-ns#"
   xmlns:svg="http://www.w3.org/2000/svg"
   xmlns="http://www.w3.org/2000/svg"
   xmlns:sodipodi="http://sodipodi.sourceforge.net/DTD/sodipodi-0.dtd"
   xmlns:inkscape="http://www.inkscape.org/namespaces/inkscape"
   width="37.1553mm"
   height="37.1553mm"
   viewBox="0 0 512 512"
   version="1.1"
   id="svg3"
   sodipodi:docname="telegram-fill-blue.svg"
   inkscape:version="0.92.4 5da689c313, 2019-01-14">
  <metadata
     id="metadata9">
    <rdf:RDF>
      <cc:Work
         rdf:about="">
        <dc:format>image/svg+xml</dc:format>
        <dc:type
           rdf:resource="http://purl.org/dc/dcmitype/StillImage" />
        <dc:title></dc:title>
      </cc:Work>
    </rdf:RDF>
  </metadata>
  <defs
     id="defs7" />
  <sodipodi:namedview
     pagecolor="#ffffff"
     bordercolor="#666666"
     borderopacity="1"
     objecttolerance="10"
     gridtolerance="10"
     guidetolerance="10"
     inkscape:pageopacity="0"
     inkscape:pageshadow="2"
     inkscape:window-width="945"
     inkscape:window-height="1033"
     id="namedview5"
     showgrid="false"
     inkscape:zoom="2.8284271"
     inkscape:cx="63.044598"
     inkscape:cy="104.57157"
     inkscape:window-x="14"
     inkscape:window-y="31"
     inkscape:window-maximized="0"
     inkscape:current-layer="svg3" />
  <g
     id="g92"
     style="stroke:#08a6fb;stroke-opacity:0;fill:#08a6fb;fill-opacity:1">
    <path
       sodipodi:nodetypes="cccccccccccccccccccccsc"
       style="fill:#08a6fb;stroke:#08a6fb;stroke-width:1;stroke-opacity:0;fill-opacity:1"
       inkscape:connector-curvature="0"
       d="m 17.67,236 98.33,75.33 1.33,146 c 0.0259,11.79763 9.66203,15.13661 15.34,10 L 218,386 l 71.33,50.67 c 16.25789,10.94648 28.91727,11.04236 39.34,-8 L 499.5,90 C 512.52394,63.576913 503.86891,25.311447 455,40 L 24,175 C 4.67,181.97407 1.0079661,222.12661 17.67,236 Z M 454,66.67 c 14.56182,-4.490547 25.33,4.287637 20,18 L 311.5,410.5 c -2.23115,4.03588 -7.42473,6.04473 -12.33,2.67 l -108,-77.67 c -5.27744,-4.14244 -3.58349,-8.8304 -0.34,-12.5 L 306,194 141,279 c -5.78817,2.84316 -11.26514,5.79206 -17.67,1.67 L 34.985391,215.7132 c -8.880444,-6.68087 -6.725801,-17.96552 0.417578,-20.16484 z"
       id="Unnamed" />
    <path
       transform="scale(3.6459583)"
       inkscape:connector-curvature="0"
       id="path81"
       d="m 129.46526,9.9371285 c -3.47343,0.056404 -6.68867,1.6156775 -10.0127,2.4505805 C 82.389558,23.99449 45.303614,35.53033 8.2837606,47.273751 c -1.6494383,0.441856 -3.3934664,0.970812 -4.3626764,2.5038 -1.7101617,2.225948 -2.2821486,5.176739 -2.2566378,7.930694 0.1970992,2.894804 1.1778407,6.035611 3.7866697,7.641538 8.5604499,6.828771 17.3224849,13.399192 26.0011959,20.075826 0.459414,13.635491 0.09293,27.288541 0.653305,40.919291 -0.04675,1.88457 2.476321,3.70058 4.019399,2.2009 8.059064,-7.24841 15.726112,-14.91467 23.722225,-22.22903 7.248128,4.87288 14.164059,10.2483 21.558042,14.8966 2.412006,1.27599 5.99631,1.07688 7.45652,-1.51621 4.126033,-6.82658 7.48076,-14.08728 11.164217,-21.156431 12.72236,-25.269431 25.56962,-50.478926 38.02819,-75.879812 0.84722,-2.443756 0.77972,-5.203931 0.12491,-7.69073 -1.12255,-3.047354 -4.23292,-5.2660609 -7.52382,-5.030956 -0.3965,-0.014765 -0.79345,-0.00984 -1.19004,-0.0021 z m -2.71931,8.3407665 c 2.07768,-0.105606 3.9622,1.988847 3.22471,4.017736 -12.13193,24.928664 -24.586,49.701577 -36.981002,74.502741 -2.812933,5.434748 -5.396921,11.026848 -8.448421,16.310498 -1.50968,0.94749 -2.880683,-0.39275 -4.027727,-1.22172 C 71.047528,105.0962 61.527747,98.358762 52.223488,91.356062 51.470202,90.411598 51.996765,89.109155 52.887995,88.463712 62.622803,77.300388 72.663368,66.403768 82.361436,55.210822 83.030381,54.496698 81.903745,53.777235 81.32105,54.41163 66.374431,61.797334 51.683738,69.699578 36.733962,77.066351 34.390073,77.860056 32.764133,75.627659 30.988876,74.554893 23.962584,69.333808 16.762437,64.334168 9.9222123,58.869436 8.9468382,58.114644 7.9688785,57.059691 8.3665622,55.717867 7.9769167,54.671817 9.5108286,54.532492 10.134645,54.140029 19.894577,50.589558 29.945556,47.764316 39.861787,44.623719 67.729035,36.09888 95.532372,27.365364 123.46452,19.063817 c 1.08781,-0.260085 2.16263,-0.711431 3.28143,-0.785922 z"
       style="fill:#08a6fb;stroke-width:0.21037847;stroke:#08a6fb;stroke-opacity:0;fill-opacity:1" />
    <path
       transform="scale(3.6459583)"
       inkscape:connector-curvature="0"
       id="path87"
       d="m 83.273231,53.488839 c -0.07049,0.02028 -0.132292,0.06212 -0.198482,0.09281 -0.317373,0.163202 -0.635639,0.324796 -0.950984,0.491856 -0.08285,0.0478 -0.122773,0.156889 -0.08785,0.246346 0.01814,0.05013 0.05742,0.09124 0.105559,0.113716 0.03896,0.02171 0.08309,0.05158 0.116341,0.08591 0.04241,0.03941 0.07285,0.08886 0.09753,0.140647 0.04986,0.08828 0.1697,0.128321 0.260957,0.08201 0.06298,-0.0289 0.100258,-0.09137 0.148131,-0.138691 0.236493,-0.26383 0.474069,-0.526763 0.706887,-0.793836 0.06294,-0.07706 0.05657,-0.200365 -0.0172,-0.268087 -0.0464,-0.04692 -0.116668,-0.06554 -0.180898,-0.05268 z m -1.124137,0.948135 c -0.0093,-0.0039 -0.0094,-0.0044 0,0 z"
       style="fill:#08a6fb;stroke-width:0.00390625;stroke:#08a6fb;stroke-opacity:0;fill-opacity:1" />
  </g>
</svg>
